<svg width="300" height="300" viewBox="0 0 300 300" xmlns="http://www.w3.org/2000/svg">
  <defs>
    <linearGradient id="webGrad" x1="0%" y1="0%" x2="100%" y2="100%">
      <stop offset="0%" style="stop-color:#444;stop-opacity:0.8" />
      <stop offset="100%" style="stop-color:#444;stop-opacity:0" />
    </linearGradient>
  </defs>
  <g stroke="url(#webGrad)" stroke-width="1.5" fill="none" stroke-linecap="round">
    <!-- Лучи -->
    <path d="M0,0 L300,100" />
    <path d="M0,0 L280,180" />
    <path d="M0,0 L200,260" />
    <path d="M0,0 L80,300" />
    <!-- Перемычки -->
    <path d="M30,10 Q35,20 28,30" />
    <path d="M60,20 Q70,45 56,60" />
    <path d="M90,30 Q105,70 84,90" />
    <path d="M120,40 Q140,95 112,120" />
    <path d="M150,50 Q175,120 140,150" />
    
    <path d="M28,30 Q25,45 10,50" />
    <path d="M56,60 Q50,90 20,100" />
    <path d="M84,90 Q75,135 30,150" />
    <path d="M112,120 Q100,180 40,200" />
  </g>
</svg>